<?xml version="1.0" encoding="UTF-8" standalone="no"?>
<svg
   xmlns:dc="http://purl.org/dc/elements/1.1/"
   xmlns:cc="http://creativecommons.org/ns#"
   xmlns:rdf="http://www.w3.org/1999/02/22-rdf-syntax-ns#"
   xmlns:svg="http://www.w3.org/2000/svg"
   xmlns="http://www.w3.org/2000/svg"
   xmlns:sodipodi="http://sodipodi.sourceforge.net/DTD/sodipodi-0.dtd"
   xmlns:inkscape="http://www.inkscape.org/namespaces/inkscape"
   width="16"
   height="16"
   fill="currentColor"
   class="bi bi-twitter"
   viewBox="0 0 16 16"
   version="1.1"
   id="svg969"
   sodipodi:docname="twitterwhite.svg"
   inkscape:version="1.0.1 (c497b03c, 2020-09-10)">
  <metadata
     id="metadata975">
    <rdf:RDF>
      <cc:Work
         rdf:about="">
        <dc:format>image/svg+xml</dc:format>
        <dc:type
           rdf:resource="http://purl.org/dc/dcmitype/StillImage" />
        <dc:title></dc:title>
      </cc:Work>
    </rdf:RDF>
  </metadata>
  <defs
     id="defs973" />
  <sodipodi:namedview
     pagecolor="#ffffff"
     bordercolor="#666666"
     borderopacity="1"
     objecttolerance="10"
     gridtolerance="10"
     guidetolerance="10"
     inkscape:pageopacity="0"
     inkscape:pageshadow="2"
     inkscape:window-width="1920"
     inkscape:window-height="1035"
     id="namedview971"
     showgrid="false"
     inkscape:zoom="35.5625"
     inkscape:cx="8"
     inkscape:cy="8"
     inkscape:window-x="1280"
     inkscape:window-y="23"
     inkscape:window-maximized="1"
     inkscape:current-layer="svg969" />
  <path
     d="m 5.026,14.943761 c 6.038,0 9.341,-5.003 9.341,-9.334 0,-0.14 0,-0.282 -0.006,-0.422 a 6.685,6.685 0 0 0 1.639,-1.702 6.658,6.658 0 0 1 -1.889,0.518 3.301,3.301 0 0 0 1.447,-1.817 6.533,6.533 0 0 1 -2.087,0.793 3.286,3.286 0 0 0 -5.596,2.994 9.325,9.325 0 0 1 -6.767,-3.429 3.289,3.289 0 0 0 1.018,4.382 3.323,3.323 0 0 1 -1.486,-0.408 v 0.045 a 3.288,3.288 0 0 0 2.632,3.218 3.203,3.203 0 0 1 -0.865,0.115 3.23,3.23 0 0 1 -0.614,-0.057 3.283,3.283 0 0 0 3.067,2.277 6.588,6.588 0 0 1 -4.08,1.407 6.32,6.32 0 0 1 -0.78,-0.045 9.344,9.344 0 0 0 5.026,1.465 z"
     id="path967"
     style="fill:#ffffff" />
</svg>
